<svg id="Layer_1" data-name="Layer 1" xmlns="http://www.w3.org/2000/svg" viewBox="0 0 49.68 49.68"><defs><style>.cls-1{fill:#fff;}</style></defs><title>facebook-icon</title><path class="cls-1" d="M24.84,49.68A24.84,24.84,0,1,1,49.68,24.84,24.86,24.86,0,0,1,24.84,49.68ZM24.84,2A22.84,22.84,0,1,0,47.68,24.84,22.87,22.87,0,0,0,24.84,2Z"/><g id="lzc96Y.tif"><path class="cls-1" d="M32.94,7.18v6.07H29.13a1.45,1.45,0,0,0-1.65,1.5c-.06,1.26,0,2.53,0,3.85h5.59c-.07.75-.13,1.44-.2,2.13-.13,1.24-.27,2.47-.38,3.7,0,.35-.13.46-.48.45-1.35,0-2.7,0-4,0h-.48V42.51H20.11V24.88H16.63V18.62H20.1V18.1c0-1.5-.05-3,.08-4.49.28-3.24,2.22-6,6.08-6.33,1.83-.16,3.67-.08,5.5-.1Z"/></g></svg>