<svg id="Layer_1" data-name="Layer 1" xmlns="http://www.w3.org/2000/svg" viewBox="0 0 49.68 49.68"><defs><style>.cls-1{fill:#fff;}</style></defs><title>instagram-icon</title><path class="cls-1" d="M24.84,49.68A24.84,24.84,0,1,1,49.68,24.84,24.86,24.86,0,0,1,24.84,49.68ZM24.84,2A22.84,22.84,0,1,0,47.68,24.84,22.87,22.87,0,0,0,24.84,2Z"/><g id="Tu75nl.tif"><path class="cls-1" d="M24.85,39.82c-2,0-4.09,0-6.13-.11a9.69,9.69,0,0,1-4.93-1.32,7.68,7.68,0,0,1-3.57-5.25,27.56,27.56,0,0,1-.33-5.29c0-2.58,0-5.16,0-7.73a14.52,14.52,0,0,1,.61-4.72,7.68,7.68,0,0,1,6-5.19,24.68,24.68,0,0,1,5.22-.33c2.6,0,5.2,0,7.8,0a14.52,14.52,0,0,1,4.72.61,7.66,7.66,0,0,1,5.19,6,25,25,0,0,1,.33,5.25c0,2.59,0,5.18,0,7.77a14.46,14.46,0,0,1-.61,4.71,7.66,7.66,0,0,1-6,5.2,27,27,0,0,1-5.32.33c-1,0-2,0-3,0Zm12.29-15h0c0-1.26,0-2.52,0-3.77a37.9,37.9,0,0,0-.27-3.85,5,5,0,0,0-4.07-4.33,20.57,20.57,0,0,0-4.14-.31c-2.51,0-5,0-7.54,0a26.91,26.91,0,0,0-3.81.27A5,5,0,0,0,13,16.71a15.34,15.34,0,0,0-.35,3.64c0,2.06,0,4.13,0,6.19,0,1.82,0,3.65.21,5.46A5.06,5.06,0,0,0,17,36.77a20.51,20.51,0,0,0,4.14.3q3.75.06,7.5,0a27.36,27.36,0,0,0,3.85-.26,4.88,4.88,0,0,0,4.23-3.72A9.9,9.9,0,0,0,37,30.93C37.08,28.9,37.1,26.87,37.14,24.84Z"/><path class="cls-1" d="M32.52,24.83a7.69,7.69,0,1,1-7.59-7.69A7.65,7.65,0,0,1,32.52,24.83Zm-7.68-5a5,5,0,1,0,5,5A5,5,0,0,0,24.84,19.84Z"/><path class="cls-1" d="M34.62,16.85a1.79,1.79,0,0,1-1.77,1.8A1.82,1.82,0,0,1,31,16.85a1.8,1.8,0,0,1,1.8-1.8A1.76,1.76,0,0,1,34.62,16.85Z"/></g></svg>