<svg id="Layer_1" data-name="Layer 1" xmlns="http://www.w3.org/2000/svg" viewBox="0 0 49.68 49.68"><defs><style>.cls-1{fill:#fff;}</style></defs><title>pinterest-icon</title><g id="_2JKrwP.tif" data-name="2JKrwP.tif"><path class="cls-1" d="M18.26,41.42A17.77,17.77,0,0,1,7.49,20.35,17.92,17.92,0,1,1,19.56,41.91c1.85-2.62,2.52-5.66,3.28-8.72,2.65,2.45,6.22,2.51,9.22.19a11.1,11.1,0,0,0,4.12-7.6,10.18,10.18,0,0,0-1.9-7.94,10.71,10.71,0,0,0-8.12-4.23,12.4,12.4,0,0,0-9.31,2.83A10.31,10.31,0,0,0,14.63,29a5.86,5.86,0,0,0,2.21,2.29c.45.25.74.19.86-.36s.3-1.08.38-1.63a1.3,1.3,0,0,0-.17-.84,7.6,7.6,0,0,1,5.18-11.59,8.61,8.61,0,0,1,4.74.42,6.53,6.53,0,0,1,4.29,5.5,9.78,9.78,0,0,1-1.84,7.54,4.38,4.38,0,0,1-4,1.82,2.47,2.47,0,0,1-2.27-3c.39-1.65.9-3.27,1.32-4.92a5.3,5.3,0,0,0,.13-1.38,2.17,2.17,0,0,0-1.17-2.08,2.45,2.45,0,0,0-2.59.23A4,4,0,0,0,20,24.18,21.62,21.62,0,0,0,20.23,27a3.81,3.81,0,0,1,.05,1.21c-.6,2.66-1.32,5.29-1.84,8a28.48,28.48,0,0,0-.25,4.24A7.75,7.75,0,0,0,18.26,41.42Z"/></g><path class="cls-1" d="M24.84,49.68A24.84,24.84,0,1,1,49.68,24.84,24.86,24.86,0,0,1,24.84,49.68ZM24.84,2A22.84,22.84,0,1,0,47.68,24.84,22.87,22.87,0,0,0,24.84,2Z"/></svg>