<?xml version="1.0" standalone="no"?>
<!DOCTYPE svg PUBLIC "-//W3C//DTD SVG 20010904//EN"
 "http://www.w3.org/TR/2001/REC-SVG-20010904/DTD/svg10.dtd">
<svg version="1.0" xmlns="http://www.w3.org/2000/svg"
 width="288.000000pt" height="288.000000pt" viewBox="0 0 288.000000 288.000000"
 preserveAspectRatio="xMidYMid meet">
<metadata>
Created by potrace 1.11, written by Peter Selinger 2001-2013
</metadata>
<g transform="translate(0.000000,288.000000) scale(0.100000,-0.100000)"
fill="#000000" stroke="none">
<path d="M993 2619 c-13 -13 -18 -95 -7 -123 3 -9 24 -18 50 -22 78 -11 74 15
74 -455 0 -271 -4 -427 -10 -440 -8 -14 -21 -19 -50 -19 -51 0 -70 -20 -70
-76 0 -89 -18 -84 313 -84 306 0 381 7 475 42 77 29 153 105 177 177 25 75 18
229 -13 288 -29 56 -85 109 -143 136 l-48 21 54 48 c73 65 98 121 98 212 -1
95 -29 162 -94 220 -86 77 -99 80 -469 84 -251 2 -328 0 -337 -9z m605 -170
c25 -13 54 -37 69 -60 22 -33 25 -47 21 -98 -9 -121 -78 -165 -263 -166 l-110
0 -3 173 -2 172 122 0 c104 0 128 -3 166 -21z m-44 -479 c88 -14 143 -45 177
-98 73 -115 5 -252 -147 -298 -29 -8 -91 -14 -161 -14 l-113 0 0 203 c0 112 3
207 7 210 10 10 170 8 237 -3z"/>
<path d="M345 1239 c-72 -49 -136 -96 -144 -104 -19 -19 -17 -64 5 -80 109
-81 273 -185 285 -180 9 3 40 55 69 116 l53 109 -52 107 c-47 97 -64 122 -81
123 -3 0 -64 -41 -135 -91z m149 -91 l24 -53 -25 -50 c-14 -27 -27 -52 -28
-53 -5 -6 -146 95 -147 105 -1 10 123 101 140 102 7 1 24 -23 36 -51z"/>
<path d="M2398 1293 c-36 -43 -108 -172 -108 -194 0 -23 72 -151 108 -192 14
-15 32 -17 151 -15 l136 3 3 33 c3 25 -7 49 -37 97 -23 36 -41 69 -41 75 0 6
16 36 36 67 46 72 53 93 43 121 -8 21 -13 22 -142 22 -115 0 -136 -2 -149 -17z
m157 -110 c-10 -16 -24 -37 -32 -48 -19 -28 -17 -42 17 -96 l30 -49 -64 0 -64
0 -31 48 c-17 27 -31 54 -31 60 0 6 14 33 31 61 l32 51 65 0 64 0 -17 -27z"/>
<path d="M722 1138 c-15 -15 -15 -43 -2 -69 10 -19 29 -19 718 -19 537 0 711
3 720 12 15 15 15 61 0 76 -17 17 -1419 17 -1436 0z"/>
<path d="M1412 928 c-7 -7 -12 -44 -12 -98 0 -54 5 -91 12 -98 17 -17 55 -15
62 4 8 20 8 168 0 188 -7 19 -45 21 -62 4z"/>
<path d="M892 788 c-16 -16 -15 -53 2 -70 7 -8 101 -52 207 -98 107 -46 198
-86 202 -90 5 -4 -72 -42 -170 -84 -255 -111 -247 -107 -251 -139 -4 -30 12
-57 33 -57 7 0 128 50 269 111 l256 112 261 -113 c202 -88 265 -111 278 -103
20 13 26 66 9 80 -7 6 -104 50 -216 98 -111 48 -200 90 -197 93 3 3 96 45 207
93 172 74 204 92 213 114 10 29 -2 58 -27 63 -8 2 -130 -47 -271 -108 l-256
-111 -256 110 c-141 61 -262 111 -269 111 -6 0 -17 -5 -24 -12z"/>
</g>
</svg>
